<svg width="1920" height="620" viewBox="0 0 1920 620" fill="none" xmlns="http://www.w3.org/2000/svg">
<g clip-path="url(#clip0_39_223)">
<circle cx="161" cy="472" r="11" fill="#E63946" fill-opacity="0.1"/>
<circle cx="191" cy="472" r="11" fill="#E63946" fill-opacity="0.1"/>
<circle cx="221" cy="472" r="11" fill="#E63946" fill-opacity="0.1"/>
<circle cx="161" cy="502" r="11" fill="#E63946" fill-opacity="0.1"/>
<circle cx="191" cy="502" r="11" fill="#E63946" fill-opacity="0.1"/>
<circle cx="221" cy="502" r="11" fill="#E63946" fill-opacity="0.1"/>
<circle cx="161" cy="532" r="11" fill="#E63946" fill-opacity="0.1"/>
<circle cx="191" cy="532" r="11" fill="#E63946" fill-opacity="0.1"/>
<circle cx="221" cy="532" r="11" fill="#E63946" fill-opacity="0.1"/>
<circle cx="161" cy="562" r="11" fill="#E63946" fill-opacity="0.1"/>
<circle cx="191" cy="562" r="11" fill="#E63946" fill-opacity="0.1"/>
<circle cx="221" cy="562" r="11" fill="#E63946" fill-opacity="0.1"/>
<circle cx="161" cy="592" r="11" fill="#E63946" fill-opacity="0.1"/>
<circle cx="191" cy="592" r="11" fill="#E63946" fill-opacity="0.1"/>
<circle cx="221" cy="592" r="11" fill="#E63946" fill-opacity="0.1"/>
<circle cx="1140" cy="291" r="11" fill="#E63946" fill-opacity="0.1"/>
<circle cx="1170" cy="291" r="11" fill="#E63946" fill-opacity="0.1"/>
<circle cx="1200" cy="291" r="11" fill="#E63946" fill-opacity="0.1"/>
<circle cx="1140" cy="321" r="11" fill="#E63946" fill-opacity="0.1"/>
<circle cx="1170" cy="321" r="11" fill="#E63946" fill-opacity="0.1"/>
<circle cx="1200" cy="321" r="11" fill="#E63946" fill-opacity="0.1"/>
<circle cx="1140" cy="351" r="11" fill="#E63946" fill-opacity="0.1"/>
<circle cx="1170" cy="351" r="11" fill="#E63946" fill-opacity="0.1"/>
<circle cx="1200" cy="351" r="11" fill="#E63946" fill-opacity="0.1"/>
<circle cx="1140" cy="381" r="11" fill="#E63946" fill-opacity="0.1"/>
<circle cx="1170" cy="381" r="11" fill="#E63946" fill-opacity="0.1"/>
<circle cx="1200" cy="381" r="11" fill="#E63946" fill-opacity="0.1"/>
<circle cx="1140" cy="411" r="11" fill="#E63946" fill-opacity="0.1"/>
<circle cx="1170" cy="411" r="11" fill="#E63946" fill-opacity="0.1"/>
<circle cx="1200" cy="411" r="11" fill="#E63946" fill-opacity="0.1"/>
<path d="M714.5 -25L817.5 90.5L618 168.5L687.5 199.5" stroke="#00AFB9" stroke-opacity="0.1" stroke-width="15" stroke-linecap="round" stroke-linejoin="round"/>
<path d="M1795.9 405.589L1866.83 268.048L2011.13 426.364L2015.17 350.372" stroke="#00AFB9" stroke-opacity="0.1" stroke-width="15" stroke-linecap="round" stroke-linejoin="round"/>
<path d="M191 -402L191 68" stroke="#00AFB9" stroke-opacity="0.1" stroke-width="15" stroke-linecap="round"/>
<path d="M1398 551L1398 1021" stroke="#00AFB9" stroke-opacity="0.1" stroke-width="15" stroke-linecap="round"/>
</g>
<defs>
<clipPath id="clip0_39_223">
<rect width="1920" height="620" fill="white"/>
</clipPath>
</defs>
</svg>
