<svg width="150" height="30" viewBox="0 0 150 30" fill="none" xmlns="http://www.w3.org/2000/svg">
<path d="M1.07 23V19.22H10.07C10.51 19.22 10.91 19.11 11.27 18.89C11.63 18.67 11.92 18.38 12.14 18.02C12.36 17.64 12.47 17.23 12.47 16.79C12.47 16.33 12.36 15.92 12.14 15.56C11.92 15.18 11.63 14.88 11.27 14.66C10.91 14.44 10.51 14.33 10.07 14.33H6.56C5.38 14.33 4.31 14.09 3.35 13.61C2.39 13.13 1.62 12.44 1.04 11.54C0.48 10.62 0.2 9.52 0.2 8.24C0.2 6.98 0.47 5.89 1.01 4.97C1.55 4.03 2.28 3.3 3.2 2.78C4.12 2.26 5.14 2 6.26 2H15.38V5.78H6.68C6.28 5.78 5.91 5.89 5.57 6.11C5.23 6.31 4.96 6.58 4.76 6.92C4.58 7.26 4.49 7.64 4.49 8.06C4.49 8.48 4.58 8.86 4.76 9.2C4.96 9.54 5.23 9.81 5.57 10.01C5.91 10.21 6.28 10.31 6.68 10.31H10.31C11.61 10.31 12.74 10.56 13.7 11.06C14.66 11.56 15.4 12.26 15.92 13.16C16.46 14.06 16.73 15.11 16.73 16.31C16.73 17.73 16.45 18.94 15.89 19.94C15.35 20.94 14.61 21.7 13.67 22.22C12.75 22.74 11.73 23 10.61 23H1.07ZM19.7293 23V1.1H23.8393V8.78C24.4793 8.26 25.1693 7.89 25.9093 7.67C26.6493 7.45 27.3793 7.34 28.0993 7.34C29.5793 7.34 30.7993 7.65 31.7593 8.27C32.7393 8.89 33.4693 9.72 33.9493 10.76C34.4293 11.8 34.6693 12.95 34.6693 14.21V23H30.5593V14.21C30.5593 13.59 30.4093 13.03 30.1093 12.53C29.8093 12.01 29.3993 11.6 28.8793 11.3C28.3793 11 27.8193 10.85 27.1993 10.85C26.5993 10.85 26.0393 11 25.5193 11.3C25.0193 11.58 24.6093 11.97 24.2893 12.47C23.9893 12.95 23.8393 13.49 23.8393 14.09V23H19.7293ZM45.9172 23.36C44.3372 23.36 42.9272 23.01 41.6872 22.31C40.4472 21.59 39.4672 20.63 38.7472 19.43C38.0272 18.21 37.6672 16.85 37.6672 15.35C37.6672 13.85 38.0272 12.5 38.7472 11.3C39.4672 10.08 40.4472 9.12 41.6872 8.42C42.9272 7.7 44.3372 7.34 45.9172 7.34C47.4972 7.34 48.9072 7.7 50.1472 8.42C51.3872 9.12 52.3672 10.08 53.0872 11.3C53.8072 12.5 54.1672 13.85 54.1672 15.35C54.1672 16.85 53.8072 18.21 53.0872 19.43C52.3672 20.63 51.3872 21.59 50.1472 22.31C48.9072 23.01 47.4972 23.36 45.9172 23.36ZM45.9172 19.85C46.7572 19.85 47.4772 19.65 48.0772 19.25C48.6972 18.85 49.1672 18.31 49.4872 17.63C49.8272 16.95 49.9972 16.19 49.9972 15.35C49.9972 14.51 49.8272 13.75 49.4872 13.07C49.1672 12.39 48.6972 11.85 48.0772 11.45C47.4772 11.05 46.7572 10.85 45.9172 10.85C45.0772 10.85 44.3472 11.05 43.7272 11.45C43.1272 11.85 42.6572 12.39 42.3172 13.07C41.9972 13.75 41.8372 14.51 41.8372 15.35C41.8372 16.19 41.9972 16.95 42.3172 17.63C42.6572 18.31 43.1272 18.85 43.7272 19.25C44.3472 19.65 45.0772 19.85 45.9172 19.85ZM102.586 23C100.846 23 99.3258 22.67 98.0258 22.01C96.7458 21.33 95.7458 20.41 95.0258 19.25C94.3258 18.09 93.9758 16.79 93.9758 15.35C93.9758 13.73 94.3058 12.32 94.9658 11.12C95.6258 9.92 96.5258 8.99 97.6658 8.33C98.8058 7.67 100.096 7.34 101.536 7.34C103.256 7.34 104.646 7.7 105.706 8.42C106.786 9.14 107.576 10.11 108.076 11.33C108.576 12.53 108.826 13.87 108.826 15.35C108.826 15.55 108.816 15.79 108.796 16.07C108.776 16.33 108.746 16.53 108.706 16.67H98.3558C98.5158 17.29 98.7858 17.81 99.1658 18.23C99.5658 18.65 100.056 18.97 100.636 19.19C101.236 19.39 101.906 19.49 102.646 19.49H106.906V23H102.586ZM98.3258 13.91H104.716C104.676 13.53 104.606 13.18 104.506 12.86C104.406 12.52 104.266 12.22 104.086 11.96C103.906 11.7 103.696 11.48 103.456 11.3C103.216 11.12 102.936 10.98 102.616 10.88C102.296 10.78 101.946 10.73 101.566 10.73C101.066 10.73 100.616 10.82 100.216 11C99.8358 11.18 99.5158 11.42 99.2558 11.72C98.9958 12.02 98.7858 12.36 98.6258 12.74C98.4858 13.12 98.3858 13.51 98.3258 13.91ZM119.071 23C117.491 23 116.081 22.66 114.841 21.98C113.601 21.3 112.621 20.39 111.901 19.25C111.181 18.09 110.821 16.79 110.821 15.35C110.821 13.91 111.181 12.62 111.901 11.48C112.621 10.32 113.601 9.4 114.841 8.72C116.081 8.04 117.491 7.7 119.071 7.7H120.991V11.21H119.071C118.231 11.21 117.501 11.39 116.881 11.75C116.281 12.11 115.811 12.61 115.471 13.25C115.151 13.87 114.991 14.57 114.991 15.35C114.991 16.13 115.151 16.84 115.471 17.48C115.811 18.1 116.281 18.59 116.881 18.95C117.501 19.31 118.231 19.49 119.071 19.49H120.991V23H119.071ZM129.16 23C127.8 23 126.73 22.61 125.95 21.83C125.19 21.05 124.81 19.99 124.81 18.65V3.86H128.92V18.53C128.92 18.79 129.01 19.02 129.19 19.22C129.39 19.4 129.62 19.49 129.88 19.49H133.21V23H129.16ZM122.2 11.21V7.7H133.21V11.21H122.2ZM136.42 23V19.49H143.89C144.13 19.49 144.34 19.44 144.52 19.34C144.72 19.24 144.87 19.1 144.97 18.92C145.09 18.74 145.15 18.54 145.15 18.32C145.15 18.08 145.09 17.87 144.97 17.69C144.87 17.51 144.72 17.37 144.52 17.27C144.34 17.15 144.13 17.09 143.89 17.09H141.01C140.03 17.09 139.14 16.94 138.34 16.64C137.56 16.32 136.93 15.82 136.45 15.14C135.99 14.44 135.76 13.53 135.76 12.41C135.76 11.55 135.97 10.77 136.39 10.07C136.83 9.35 137.41 8.78 138.13 8.36C138.87 7.92 139.68 7.7 140.56 7.7H147.73V11.21H140.95C140.65 11.21 140.38 11.31 140.14 11.51C139.92 11.71 139.81 11.97 139.81 12.29C139.81 12.61 139.92 12.88 140.14 13.1C140.36 13.3 140.63 13.4 140.95 13.4H143.83C144.93 13.4 145.88 13.57 146.68 13.91C147.48 14.23 148.1 14.74 148.54 15.44C148.98 16.14 149.2 17.06 149.2 18.2C149.2 19.08 148.98 19.89 148.54 20.63C148.1 21.35 147.51 21.93 146.77 22.37C146.03 22.79 145.2 23 144.28 23H136.42Z" fill="#F8F9FA"/>
<path d="M62.8407 23.36C61.8007 23.36 60.8507 23.16 59.9907 22.76C59.1307 22.34 58.4407 21.71 57.9207 20.87C57.4207 20.03 57.1707 18.97 57.1707 17.69V7.7H61.2807V18.29C61.2807 18.57 61.3507 18.83 61.4907 19.07C61.6307 19.31 61.8207 19.5 62.0607 19.64C62.3007 19.78 62.5607 19.85 62.8407 19.85C63.1207 19.85 63.3807 19.78 63.6207 19.64C63.8607 19.5 64.0507 19.31 64.1907 19.07C64.3307 18.83 64.4007 18.57 64.4007 18.29V13.01C64.4007 11.81 64.6307 10.79 65.0907 9.95C65.5707 9.11 66.2307 8.47 67.0707 8.03C67.9307 7.57 68.9307 7.34 70.0707 7.34C71.2107 7.34 72.2007 7.57 73.0407 8.03C73.9007 8.47 74.5607 9.11 75.0207 9.95C75.5007 10.79 75.7407 11.81 75.7407 13.01V18.29C75.7407 18.57 75.8107 18.83 75.9507 19.07C76.0907 19.31 76.2807 19.5 76.5207 19.64C76.7607 19.78 77.0207 19.85 77.3007 19.85C77.6007 19.85 77.8607 19.78 78.0807 19.64C78.3207 19.5 78.5107 19.31 78.6507 19.07C78.7907 18.83 78.8607 18.57 78.8607 18.29V7.7H82.9707V17.69C82.9707 18.97 82.7107 20.03 82.1907 20.87C81.6907 21.71 81.0107 22.34 80.1507 22.76C79.2907 23.16 78.3407 23.36 77.3007 23.36C76.2807 23.36 75.3407 23.16 74.4807 22.76C73.6207 22.34 72.9307 21.71 72.4107 20.87C71.8907 20.03 71.6307 18.97 71.6307 17.69V12.41C71.6307 12.11 71.5607 11.85 71.4207 11.63C71.2807 11.39 71.0907 11.2 70.8507 11.06C70.6307 10.92 70.3707 10.85 70.0707 10.85C69.7907 10.85 69.5307 10.92 69.2907 11.06C69.0507 11.2 68.8607 11.39 68.7207 11.63C68.5807 11.85 68.5107 12.11 68.5107 12.41V17.69C68.5107 18.97 68.2507 20.03 67.7307 20.87C67.2107 21.71 66.5207 22.34 65.6607 22.76C64.8207 23.16 63.8807 23.36 62.8407 23.36Z" fill="#00AFB9"/>
<path d="M82.6177 29.09V25.58H85.9477C86.2277 25.58 86.4577 25.48 86.6377 25.28C86.8177 25.1 86.9077 24.88 86.9077 24.62V7.7H91.0177V24.74C91.0177 26.08 90.6277 27.14 89.8477 27.92C89.0877 28.7 88.0277 29.09 86.6677 29.09H82.6177ZM88.9177 5.84C88.2177 5.84 87.6077 5.59 87.0877 5.09C86.5877 4.57 86.3377 3.96 86.3377 3.26C86.3377 2.56 86.5877 1.96 87.0877 1.46C87.6077 0.939999 88.2177 0.679999 88.9177 0.679999C89.6177 0.679999 90.2177 0.939999 90.7177 1.46C91.2377 1.96 91.4977 2.56 91.4977 3.26C91.4977 3.96 91.2377 4.57 90.7177 5.09C90.2177 5.59 89.6177 5.84 88.9177 5.84Z" fill="#E63946"/>
</svg>
